<?xml version="1.0" encoding="UTF-8" standalone="no"?>
<svg
   version="1.1"
   id="Capa_1"
   x="0px"
   y="0px"
   viewBox="0 0 67.671 67.671"
   style="enable-background:new 0 0 67.671 67.671;"
   xml:space="preserve"
   sodipodi:docname="export.svg"
   inkscape:version="1.2.1 (9c6d41e410, 2022-07-14, custom)"
   xmlns:inkscape="http://www.inkscape.org/namespaces/inkscape"
   xmlns:sodipodi="http://sodipodi.sourceforge.net/DTD/sodipodi-0.dtd"
   xmlns="http://www.w3.org/2000/svg"
   xmlns:svg="http://www.w3.org/2000/svg"><defs
   id="defs41" /><sodipodi:namedview
   id="namedview39"
   pagecolor="#ffffff"
   bordercolor="#666666"
   borderopacity="1.0"
   inkscape:pageshadow="2"
   inkscape:pageopacity="0.0"
   inkscape:pagecheckerboard="0"
   showgrid="false"
   inkscape:zoom="9.309749"
   inkscape:cx="33.889206"
   inkscape:cy="33.835499"
   inkscape:window-width="1920"
   inkscape:window-height="983"
   inkscape:window-x="0"
   inkscape:window-y="768"
   inkscape:window-maximized="1"
   inkscape:current-layer="Capa_1"
   inkscape:showpageshadow="2"
   inkscape:deskcolor="#d1d1d1" />
<g
   id="g6"
   style="fill:#ffffff"
   transform="matrix(0.82363056,0,0,0.82363056,5.9675483,6)">
	<path
   d="M 52.946,23.348 H 42.834 v 6 h 10.112 c 3.007,0 5.34,1.536 5.34,2.858 v 26.606 c 0,1.322 -2.333,2.858 -5.34,2.858 H 14.724 c -3.007,0 -5.34,-1.536 -5.34,-2.858 V 32.207 c 0,-1.322 2.333,-2.858 5.34,-2.858 h 10.11 v -6 h -10.11 c -6.359,0 -11.34,3.891 -11.34,8.858 v 26.606 c 0,4.968 4.981,8.858 11.34,8.858 h 38.223 c 6.358,0 11.34,-3.891 11.34,-8.858 V 32.207 C 64.286,27.239 59.305,23.348 52.946,23.348 Z"
   id="path2"
   style="fill:#ffffff" />
	<path
   d="m 24.957,14.955 c 0.768,0 1.535,-0.293 2.121,-0.879 l 3.756,-3.756 v 13.028 6 11.494 c 0,1.657 1.343,3 3,3 1.657,0 3,-1.343 3,-3 v -11.494 -6 -13.231 l 3.959,3.959 c 0.586,0.586 1.354,0.879 2.121,0.879 0.767,0 1.535,-0.293 2.121,-0.879 1.172,-1.171 1.172,-3.071 0,-4.242 L 36.078,0.877 C 35.492,0.291 34.725,0 33.958,0 33.95,0 33.943,0 33.935,0 33.927,0 33.92,0 33.912,0 33.145,0 32.378,0.291 31.792,0.877 l -8.957,8.957 c -1.172,1.171 -1.172,3.071 0,4.242 0.587,0.586 1.354,0.879 2.122,0.879 z"
   id="path4"
   style="fill:#ffffff" />
</g>
<g
   id="g8"
   style="fill:#ffffff"
   transform="matrix(0.82363056,0,0,0.82363056,5.9675483,5.9675483)">
</g>
<g
   id="g10"
   style="fill:#ffffff"
   transform="matrix(0.82363056,0,0,0.82363056,5.9675483,5.9675483)">
</g>
<g
   id="g12"
   style="fill:#ffffff"
   transform="matrix(0.82363056,0,0,0.82363056,5.9675483,5.9675483)">
</g>
<g
   id="g14"
   style="fill:#ffffff"
   transform="matrix(0.82363056,0,0,0.82363056,5.9675483,5.9675483)">
</g>
<g
   id="g16"
   style="fill:#ffffff"
   transform="matrix(0.82363056,0,0,0.82363056,5.9675483,5.9675483)">
</g>
<g
   id="g18"
   style="fill:#ffffff"
   transform="matrix(0.82363056,0,0,0.82363056,5.9675483,5.9675483)">
</g>
<g
   id="g20"
   style="fill:#ffffff"
   transform="matrix(0.82363056,0,0,0.82363056,5.9675483,5.9675483)">
</g>
<g
   id="g22"
   style="fill:#ffffff"
   transform="matrix(0.82363056,0,0,0.82363056,5.9675483,5.9675483)">
</g>
<g
   id="g24"
   style="fill:#ffffff"
   transform="matrix(0.82363056,0,0,0.82363056,5.9675483,5.9675483)">
</g>
<g
   id="g26"
   style="fill:#ffffff"
   transform="matrix(0.82363056,0,0,0.82363056,5.9675483,5.9675483)">
</g>
<g
   id="g28"
   style="fill:#ffffff"
   transform="matrix(0.82363056,0,0,0.82363056,5.9675483,5.9675483)">
</g>
<g
   id="g30"
   style="fill:#ffffff"
   transform="matrix(0.82363056,0,0,0.82363056,5.9675483,5.9675483)">
</g>
<g
   id="g32"
   style="fill:#ffffff"
   transform="matrix(0.82363056,0,0,0.82363056,5.9675483,5.9675483)">
</g>
<g
   id="g34"
   style="fill:#ffffff"
   transform="matrix(0.82363056,0,0,0.82363056,5.9675483,5.9675483)">
</g>
<g
   id="g36"
   style="fill:#ffffff"
   transform="matrix(0.82363056,0,0,0.82363056,5.9675483,5.9675483)">
</g>
</svg>
