<?xml version="1.0" encoding="UTF-8" standalone="no"?>
<svg
   version="1.1"
   id="Capa_1"
   x="0px"
   y="0px"
   viewBox="0 0 67.671 67.671"
   style="enable-background:new 0 0 67.671 67.671;"
   xml:space="preserve"
   sodipodi:docname="import.svg"
   inkscape:version="1.1.2 (0a00cf5339, 2022-02-04, custom)"
   xmlns:inkscape="http://www.inkscape.org/namespaces/inkscape"
   xmlns:sodipodi="http://sodipodi.sourceforge.net/DTD/sodipodi-0.dtd"
   xmlns="http://www.w3.org/2000/svg"
   xmlns:svg="http://www.w3.org/2000/svg"><defs
   id="defs41" /><sodipodi:namedview
   id="namedview39"
   pagecolor="#ffffff"
   bordercolor="#666666"
   borderopacity="1.0"
   inkscape:pageshadow="2"
   inkscape:pageopacity="0.0"
   inkscape:pagecheckerboard="0"
   showgrid="false"
   inkscape:zoom="9.309749"
   inkscape:cx="33.835499"
   inkscape:cy="33.835499"
   inkscape:window-width="1920"
   inkscape:window-height="983"
   inkscape:window-x="482"
   inkscape:window-y="768"
   inkscape:window-maximized="1"
   inkscape:current-layer="g6" />
<g
   id="g6">
	<path
   d="M52.946,23.348H42.834v6h10.112c3.007,0,5.34,1.536,5.34,2.858v26.606c0,1.322-2.333,2.858-5.34,2.858H14.724   c-3.007,0-5.34-1.536-5.34-2.858V32.207c0-1.322,2.333-2.858,5.34-2.858h10.11v-6h-10.11c-6.359,0-11.34,3.891-11.34,8.858v26.606   c0,4.968,4.981,8.858,11.34,8.858h38.223c6.358,0,11.34-3.891,11.34-8.858V32.207C64.286,27.239,59.305,23.348,52.946,23.348z"
   id="path2"
   style="fill:#ffffff" />
	<path
   d="m 42.913,34.887 c -0.768,0 -1.370265,0.528017 -2.121,0.879 l -3.756,3.756 v -19.028 -6 V 3 c 0,-1.657 -1.343,-3 -3,-3 -1.657,0 -3,1.343 -3,3 v 11.494 12 13.231 l -3.959,-3.959 c -0.586,-0.586 -1.354,-0.879 -2.121,-0.879 -0.767,0 -1.535,0.293 -2.121,0.879 -1.172,1.171 -1.172,3.071 0,4.242 l 8.957,8.957 c 0.586,0.586 1.353,0.877 2.12,0.877 h 0.023 0.023 c 0.767,0 1.534,-0.291 2.12,-0.877 l 8.957,-8.957 c 1.172,-1.171 1.172,-3.071 0,-4.242 -0.587,-0.586 -1.354,-0.879 -2.122,-0.879 z"
   id="path4"
   sodipodi:nodetypes="sscccssscccssccsscssccs"
   style="fill:#ffffff" />
</g>
<g
   id="g8">
</g>
<g
   id="g10">
</g>
<g
   id="g12">
</g>
<g
   id="g14">
</g>
<g
   id="g16">
</g>
<g
   id="g18">
</g>
<g
   id="g20">
</g>
<g
   id="g22">
</g>
<g
   id="g24">
</g>
<g
   id="g26">
</g>
<g
   id="g28">
</g>
<g
   id="g30">
</g>
<g
   id="g32">
</g>
<g
   id="g34">
</g>
<g
   id="g36">
</g>
</svg>
