<svg xmlns="http://www.w3.org/2000/svg" width="24" height="24"><path fill="#fff" d="M24 13.6v-3.2c-1.7-.6-2.7-.8-3.2-2h0c-.5-1.3.1-2.1.8-3.7l-2.3-2.3c-1.6.7-2.4 1.4-3.7.8h0c-1.3-.5-1.4-1.6-2-3.2h-3.2c-.6 1.6-.7 2.7-2 3.2h0c-1.3.5-2.1-.1-3.7-.8L2.4 4.7c.7 1.6 1.4 2.4.8 3.7s-1.6 1.4-3.2 2v3.2c1.6.6 2.7.7 3.2 2 .5 1.3-.1 2.2-.8 3.7l2.3 2.3c1.6-.7 2.4-1.4 3.7-.8h0c1.3.5 1.4 1.6 2 3.2h3.2c.6-1.6.8-2.7 2-3.2h0c1.3-.5 2.1.1 3.7.9l2.3-2.3c-.7-1.6-1.4-2.4-.8-3.7s1.6-1.4 3.2-2zM12 16a4 4 0 1 1 0-8 4 4 0 1 1 0 8z"/></svg>