<?xml version="1.0" encoding="UTF-8" standalone="no"?>
<svg
   height="48"
   width="48"
   version="1.1"
   id="svg4"
   sodipodi:docname="stopwatch.svg"
   inkscape:version="1.1.2 (0a00cf5339, 2022-02-04, custom)"
   xmlns:inkscape="http://www.inkscape.org/namespaces/inkscape"
   xmlns:sodipodi="http://sodipodi.sourceforge.net/DTD/sodipodi-0.dtd"
   xmlns="http://www.w3.org/2000/svg"
   xmlns:svg="http://www.w3.org/2000/svg">
  <defs
     id="defs8" />
  <sodipodi:namedview
     id="namedview6"
     pagecolor="#ffffff"
     bordercolor="#666666"
     borderopacity="1.0"
     inkscape:pageshadow="2"
     inkscape:pageopacity="0.0"
     inkscape:pagecheckerboard="0"
     showgrid="false"
     inkscape:zoom="13.125"
     inkscape:cx="24"
     inkscape:cy="24"
     inkscape:window-width="1920"
     inkscape:window-height="983"
     inkscape:window-x="482"
     inkscape:window-y="768"
     inkscape:window-maximized="1"
     inkscape:current-layer="svg4" />
  <path
     d="M14.45 34Q16.3 35.95 18.8 36.975Q21.3 38 24 38Q29.85 38 33.925 33.925Q38 29.85 38 24Q38 18.15 33.925 14.075Q29.85 10 24 10V24ZM24 44Q19.75 44 16.1 42.475Q12.45 40.95 9.75 38.25Q7.05 35.55 5.525 31.9Q4 28.25 4 24Q4 19.8 5.525 16.15Q7.05 12.5 9.75 9.8Q12.45 7.1 16.1 5.55Q19.75 4 24 4Q28.2 4 31.85 5.55Q35.5 7.1 38.2 9.8Q40.9 12.5 42.45 16.15Q44 19.8 44 24Q44 28.25 42.45 31.9Q40.9 35.55 38.2 38.25Q35.5 40.95 31.85 42.475Q28.2 44 24 44Z"
     id="path2"
     style="fill:#ffffff" />
</svg>
